<?xml version="1.0" encoding="UTF-8"?>
<svg width="100" height="100" viewBox="0 0 24 24" fill="none" xmlns="http://www.w3.org/2000/svg">
  <circle cx="12" cy="12" r="12" fill="#005cb9"/>
  <path d="M12 4C13.1046 4 14 4.89543 14 6C14 7.10457 13.1046 8 12 8C10.8954 8 10 7.10457 10 6C10 4.89543 10.8954 4 12 4Z" fill="white"/>
  <path d="M19 17L15 17L18 9L14 9C14 9 14 7 12 7C10 7 10 9 10 9L8 9L9 13L12 13L11 17L14 17L15 14.5L17 14.5" stroke="white" stroke-width="1.5" stroke-linecap="round" stroke-linejoin="round"/>
  <path d="M9 19.5C10.3807 19.5 11.5 18.3807 11.5 17C11.5 15.6193 10.3807 14.5 9 14.5C7.61929 14.5 6.5 15.6193 6.5 17C6.5 18.3807 7.61929 19.5 9 19.5Z" stroke="white" stroke-width="1.5"/>
  <path d="M17 19.5C18.3807 19.5 19.5 18.3807 19.5 17C19.5 15.6193 18.3807 14.5 17 14.5C15.6193 14.5 14.5 15.6193 14.5 17C14.5 18.3807 15.6193 19.5 17 19.5Z" stroke="white" stroke-width="1.5"/>
</svg>
